<svg xmlns="http://www.w3.org/2000/svg" viewBox="0 0 100 100">
  <g fill="#2e6b3f">
    <ellipse cx="24" cy="38" rx="10" ry="13" transform="rotate(-20 24 38)"/>
    <ellipse cx="44" cy="26" rx="10" ry="13" transform="rotate(-6 44 26)"/>
    <ellipse cx="64" cy="27" rx="10" ry="13" transform="rotate(8 64 27)"/>
    <ellipse cx="82" cy="41" rx="9" ry="12" transform="rotate(24 82 41)"/>
    <path d="M52 44c14 0 26 10 29 23 2 9-4 16-13 16-6 0-10-3-16-3s-10 3-16 3c-9 0-15-7-13-16 3-13 15-23 29-23z"/>
  </g>
</svg>
